<svg width="124" height="124" viewBox="0 0 124 124" fill="none" xmlns="http://www.w3.org/2000/svg">
<path d="M37.3604 48.3809C39.1119 52.266 42.9815 54.7665 47.249 54.7666H76.751C81.0185 54.7665 84.8881 52.266 86.6396 48.3809L108.205 0H124L99.877 54.2139L98.373 57.6396C97.1591 60.4088 97.1591 63.5912 98.373 66.3604L99.8721 69.7812L124 124H108.2L86.6348 75.6143C84.8833 71.7341 81.0134 69.2335 76.751 69.2334H47.249C42.9866 69.2335 39.1167 71.7341 37.3652 75.6143L15.7998 124H0L24.123 69.791L25.627 66.3604C26.8409 63.5912 26.8409 60.4088 25.627 57.6396L24.123 54.2139L0 0H15.7949L37.3604 48.3809Z" fill="black"/>
</svg>
