<?xml version="1.0" encoding="UTF-8"?>
<svg id="Layer_2" data-name="Layer 2" xmlns="http://www.w3.org/2000/svg" viewBox="0 0 186.68 39.72">
  <defs>
    <style>
      .cls-1 {
        fill: #1a1a1a;
      }
    </style>
  </defs>
  <g id="Layer_1-2" data-name="Layer 1">
    <g>
      <path class="cls-1" d="M168.59,32.5c-.4,1.52-1.78,2.59-3.36,2.59h-1.45c-1.57,0-2.96-1.06-3.36-2.59L151.76,0h-9.43v39.72h4.63V0l8.98,33.68c.8,3,3.22,5.24,6.17,5.86.54.11,1.1.17,1.66.17h1.45c.57,0,1.13-.06,1.66-.17,2.95-.62,5.38-2.86,6.17-5.86L182.05,0h-4.79l-8.67,32.5Z"/>
      <rect class="cls-1" x="182.05" width="4.63" height="39.72"/>
      <path class="cls-1" d="M24.43.17c-.54-.11-1.09-.17-1.66-.17h-5.82c-.56,0-1.12.06-1.66.17-2.96.62-5.39,2.85-6.18,5.86L0,39.72h4.79L13.59,7.22c.4-1.52,1.78-2.59,3.36-2.59h5.82c1.58,0,2.96,1.06,3.36,2.59l8.8,32.5h4.79L30.61,6.03c-.8-3.01-3.23-5.24-6.18-5.86Z"/>
      <path class="cls-1" d="M76.35,17.37L84.07,0h-5.06l-6.91,15.5c-.56,1.24-1.8,2.05-3.17,2.05h-9.45c-1.37,0-2.61-.8-3.17-2.05L49.41,0h-5.06l7.73,17.37.48,1.1c.39.89.39,1.91,0,2.79l-.48,1.1-7.73,17.36h5.06l6.91-15.5c.56-1.24,1.8-2.04,3.17-2.04h9.45c1.37,0,2.6.8,3.17,2.04l6.91,15.5h5.06l-7.73-17.37-.48-1.1c-.39-.89-.39-1.91,0-2.79l.48-1.1Z"/>
      <rect class="cls-1" x="88.71" width="4.63" height="39.72"/>
      <path class="cls-1" d="M131.93,0h-28.18c-3.19,0-5.77,2.58-5.77,5.77v28.18c0,3.19,2.58,5.77,5.77,5.77h28.18c3.19,0,5.77-2.58,5.77-5.77V5.77c0-3.19-2.58-5.77-5.77-5.77ZM133.08,33.95c0,.64-.52,1.15-1.15,1.15h-28.18c-.64,0-1.15-.52-1.15-1.15V5.77c0-.64.52-1.15,1.15-1.15h28.18c.64,0,1.15.52,1.15,1.15v28.18Z"/>
    </g>
  </g>
</svg>