<svg width="716" height="153" viewBox="0 0 716 153" fill="none" xmlns="http://www.w3.org/2000/svg">
<path d="M697.315 0L662.912 129.041C659.863 140.54 650.563 149.105 639.26 151.482C637.194 151.913 635.057 152.141 632.883 152.141H627.343C625.168 152.141 623.032 151.913 620.965 151.482C609.663 149.105 600.369 140.54 597.32 129.041L562.917 0H581.282L614.474 124.489C616.021 130.321 621.314 134.391 627.343 134.391H632.883C638.918 134.391 644.205 130.321 645.752 124.489L678.957 0H697.315Z" fill="white"/>
<path d="M562.924 0H545.174V152.141H562.924V0Z" fill="white"/>
<path d="M715.065 0H697.315V152.141H715.065V0Z" fill="white"/>
<path d="M505.324 17.6801C507.758 17.6801 509.742 19.6642 509.742 22.0985V130.043C509.742 132.477 507.758 134.461 505.324 134.461H397.38C394.945 134.461 392.961 132.477 392.961 130.043V22.0985C392.961 19.6642 394.945 17.6801 397.38 17.6801H505.324ZM505.324 0H397.38C385.177 0 375.281 9.8955 375.281 22.0985V130.043C375.281 142.245 385.177 152.141 397.38 152.141H505.324C517.527 152.141 527.422 142.245 527.422 130.043V22.0985C527.422 9.8955 517.527 0 505.324 0Z" fill="white"/>
<path d="M357.533 0H339.783V152.141H357.533V0Z" fill="white"/>
<path d="M215.73 59.3604C217.879 64.1275 222.627 67.1958 227.863 67.1958H264.06C269.296 67.1958 274.044 64.1275 276.193 59.3604L302.653 0H322.032L292.434 66.5175L290.59 70.72C289.1 74.1179 289.1 78.0232 290.59 81.421L292.428 85.617L322.032 152.141H302.647L276.187 92.774C274.038 88.0134 269.29 84.9452 264.06 84.9452H227.863C222.633 84.9452 217.885 88.0134 215.736 92.774L189.276 152.141H169.891L199.489 85.6301L201.333 81.421C202.823 78.0232 202.823 74.1179 201.333 70.72L199.489 66.5175L169.891 0H189.27L215.73 59.3604Z" fill="white"/>
<path d="M152.141 152.141H133.783L100.083 27.6516C98.5366 21.8196 93.2497 17.7498 87.2148 17.7498H64.9198C58.8849 17.7498 53.598 21.8196 52.0512 27.6516L18.3583 152.141H0L34.891 23.1001C37.9402 11.5881 47.2525 3.01746 58.5743 0.652938C60.6345 0.221872 62.7582 0 64.9198 0H87.2148C89.3765 0 91.5001 0.221872 93.5604 0.652938C104.882 3.01746 114.194 11.5881 117.244 23.1001L152.141 152.141Z" fill="white"/>
</svg>
