<svg width="280" height="280" viewBox="0 0 280 280" fill="none" xmlns="http://www.w3.org/2000/svg">
<rect opacity="0.05" width="70" height="280" fill="black"/>
<rect opacity="0.05" x="210" width="70" height="280" fill="black"/>
<rect opacity="0.05" y="210" width="280" height="70" fill="black"/>
<rect opacity="0.05" width="280" height="70" fill="black"/>
<path opacity="0.1" d="M21.0906 237.311C22.0793 239.505 24.2639 240.917 26.6731 240.917H43.3269C45.7361 240.917 47.9207 239.505 48.9094 237.311L61.0837 210H70L56.3821 240.605L55.5333 242.539C54.848 244.102 54.8479 245.898 55.5333 247.461L56.3789 249.393L70 280H61.0805L48.9061 252.685C47.9174 250.495 45.7331 249.083 43.3269 249.083H26.6731C24.2668 249.083 22.0818 250.495 21.093 252.685L8.91872 280H0L13.6179 249.398L14.4667 247.461C15.152 245.898 15.152 244.102 14.4667 242.539L13.6179 240.605L0 210H8.91625L21.0906 237.311Z" fill="#1A1A1A"/>
<path d="M21.5747 265.915C23.7118 265.915 24.841 267.797 24.841 270.311C24.841 272.824 23.7118 274.706 21.5747 274.706C19.4377 274.706 18.3085 272.824 18.3085 270.311C18.3085 267.797 19.4377 265.915 21.5747 265.915ZM21.5747 273.674C22.9711 273.674 23.6754 272.29 23.6754 270.311C23.6754 268.332 22.9711 266.947 21.5747 266.947C20.1784 266.947 19.4741 268.332 19.4741 270.311C19.4741 272.29 20.1784 273.674 21.5747 273.674ZM28.2093 273.067H29.7149V274.585H28.2093V273.067ZM38.8144 266.037V267.081H34.9774L34.8195 268.526C34.7831 268.842 34.7224 269.072 34.5767 269.303C34.516 269.4 34.6253 269.522 34.7588 269.4C36.1916 268.052 39.4215 268.611 39.4215 271.61C39.4215 273.225 38.4744 274.706 36.3252 274.706C34.3217 274.706 33.2775 273.504 33.2775 271.865H34.4188C34.4188 272.666 34.8195 273.65 36.3252 273.65C37.7094 273.65 38.2558 272.691 38.2558 271.683C38.2558 270.724 37.7337 269.789 36.3738 269.777C35.3538 269.764 34.8317 270.262 34.5281 270.894H33.4717L34.0546 266.037H38.8144ZM40.5677 274.585L42.814 271.307L40.762 268.332H42.1705L43.4576 270.372C43.5426 270.517 43.6154 270.651 43.6154 270.797C43.6154 270.979 43.8583 270.979 43.8583 270.797C43.8583 270.651 43.9311 270.517 44.0161 270.372L45.3032 268.332H46.7117L44.6596 271.307L46.906 274.585H45.4975L44.004 272.229C43.919 272.096 43.8583 271.962 43.8583 271.817C43.8583 271.622 43.6154 271.622 43.6154 271.817C43.6154 271.962 43.5547 272.096 43.4697 272.229L41.9762 274.585H40.5677Z" fill="black"/>
<path d="M112.279 124.993C114.261 129.38 118.64 132.203 123.469 132.203H156.854C161.683 132.203 166.063 129.38 168.045 124.993L192.45 70.3701H210.323L183.025 131.58L181.323 135.447C179.949 138.574 179.949 142.166 181.323 145.293L183.018 149.156L210.323 210.37H192.443L168.038 155.741C166.056 151.36 161.678 148.537 156.854 148.537H123.469C118.646 148.537 114.266 151.36 112.284 155.741L87.8787 210.37H70L97.2986 149.167L99.0003 145.293C100.374 142.167 100.374 138.574 99.0003 135.447L97.2986 131.58L70 70.3701H87.8737L112.279 124.993Z" fill="#1A1A1A"/>
</svg>
