<svg width="591" height="152" viewBox="0 0 591 152" fill="none" xmlns="http://www.w3.org/2000/svg">
<path d="M134 1.11621L107.931 59.7021C106.502 62.9125 104.503 65.7489 102.08 68.1162C98.8585 71.2764 94.8943 73.599 90.5337 74.8497C88.105 75.5588 85.5534 75.9329 82.9404 75.9329H51.0596C48.4466 75.9329 45.895 75.5588 43.4663 74.8553C39.1057 73.599 35.1415 71.2708 31.9199 68.1162C29.4967 65.7489 27.4979 62.9125 26.0686 59.7021L0 1.11621H17.0683L40.3731 53.3985C42.2658 57.5972 46.4477 60.2995 51.0596 60.2995H82.9404C87.5522 60.2995 91.7342 57.5972 93.6269 53.3985L116.932 1.11621H134Z" fill="black"/>
<path d="M134 135.116H116.926L93.6213 82.8283C91.7286 78.6352 87.5467 75.9329 82.9404 75.9329H51.0596C46.4533 75.9329 42.2714 78.6352 40.3787 82.8283L17.0738 135.116H0L26.0686 76.5359C27.4923 73.3255 29.4967 70.4835 31.9199 68.1162C35.1415 64.9616 39.1057 62.6334 43.4663 61.3771C45.895 60.6736 48.4466 60.2995 51.0596 60.2995H82.9404C85.5534 60.2995 88.105 60.6736 90.5337 61.3771C94.8943 62.6334 98.8585 64.9616 102.08 68.1162C104.503 70.4835 106.502 73.3199 107.926 76.5247L134 135.116Z" fill="black"/>
<path d="M43.4663 74.8497C43.1033 76.3014 42.6176 77.7251 42.009 79.1098L40.3787 82.8283L17.0738 135.116H0L26.0686 76.5359L27.6933 72.8285C29.0054 69.8359 29.0054 66.3965 27.6933 63.4039L26.0686 59.7021L0 1.11621H17.0683L40.3731 53.3985L42.009 57.1226C42.6176 58.5073 43.1033 59.931 43.4663 61.3771C44.5885 65.7935 44.5885 70.4333 43.4663 74.8497Z" fill="black"/>
<path d="M107.926 76.5247L134 135.116H116.926L93.6213 82.8283L91.991 79.1098C91.3824 77.7251 90.8967 76.3014 90.5337 74.8553C89.4115 70.4333 89.4115 65.7935 90.5337 61.3771C90.8967 59.931 91.3824 58.5073 91.991 57.1226L93.6269 53.3985L116.932 1.11621H134L107.931 59.7021L106.307 63.4039C104.995 66.3965 104.995 69.8359 106.307 72.8285L107.926 76.5247Z" fill="black"/>
<rect x="156.334" y="4.09375" width="5.95556" height="131.022" fill="black"/>
<path d="M242.736 60.1162H230.044L225.536 46.757H201.155L196.646 60.1162H183.955L205.33 1.3357H221.361L242.736 60.1162ZM211.007 17.2833L204.244 37.4056H222.446L215.683 17.2833C214.932 14.9454 214.431 11.8561 214.347 8.93375C214.347 8.43278 214.18 7.76482 213.345 7.76482C212.51 7.76482 212.343 8.43278 212.343 8.93375C212.26 11.8561 211.759 14.9454 211.007 17.2833ZM255.133 60.1162H242.775L258.472 37.0716L244.111 16.0308H256.469L263.816 27.9706C264.651 29.223 264.985 30.8095 265.069 31.8949C265.152 32.5628 265.236 33.2308 266.154 33.2308C267.072 33.2308 267.156 32.5628 267.239 31.8949C267.323 30.8095 267.657 29.223 268.492 27.9706L275.839 16.0308H288.197L273.836 37.0716L289.533 60.1162H277.175L268.492 46.089C267.657 44.6696 267.323 43.3337 267.239 42.1648C267.239 41.5803 267.072 40.8289 266.154 40.8289C265.236 40.8289 265.069 41.5803 265.069 42.1648C264.985 43.3337 264.651 44.6696 263.816 46.089L255.133 60.1162ZM294.238 10.6871V-0.000220895H304.926V10.6871H294.238ZM294.238 16.0308H304.926V60.1162H294.238V16.0308ZM332.363 15.3629C346.14 15.3629 354.406 25.5493 354.406 38.0735C354.406 50.5978 346.14 60.7842 332.363 60.7842C318.586 60.7842 310.32 50.5978 310.32 38.0735C310.32 25.5493 318.586 15.3629 332.363 15.3629ZM332.363 51.0987C339.627 51.0987 343.718 45.2541 343.718 38.0735C343.718 30.8929 339.627 25.0483 332.363 25.0483C325.099 25.0483 321.008 30.8929 321.008 38.0735C321.008 45.2541 325.099 51.0987 332.363 51.0987ZM408.055 15.3629C415.737 15.3629 422.583 19.5376 422.583 32.7298V60.1162H411.896V34.3997C411.896 27.7201 409.976 25.0483 404.799 25.0483C400.123 25.0483 396.533 30.058 396.533 37.9065V60.1162H385.845V35.4017C385.845 28.7221 384.927 25.0483 379.5 25.0483C374.323 25.0483 370.482 31.2269 370.482 39.7434V60.1162H359.795V16.0308H370.482V18.5357C370.482 20.7065 369.898 21.959 369.063 23.7959C368.729 24.5473 368.478 25.3823 369.313 25.6328C370.148 25.8832 370.482 25.1318 370.649 24.7143C372.904 18.9532 376.995 15.3629 382.84 15.3629C388.601 15.3629 392.275 18.9532 393.443 24.0464C393.61 24.6308 394.028 24.8813 394.696 24.8813C395.197 24.8813 395.614 24.7143 395.865 24.1298C398.37 18.5357 402.795 15.3629 408.055 15.3629ZM200.654 135.116H189.299V76.3357H230.712V86.3551H200.654V101.05H225.369V110.402H200.654V135.116ZM276.179 112.489C276.179 113.658 276.096 114.493 275.929 115.745H243.867C244.618 122.425 248.96 126.433 255.639 126.433C260.733 126.433 263.321 123.677 264.573 119.753H275.428C273.507 128.854 267.329 135.784 255.556 135.784C241.278 135.784 233.43 126.182 233.43 113.074C233.43 99.2968 241.946 90.3629 255.389 90.3629C265.575 90.3629 276.179 96.458 276.179 112.489ZM244.284 108.398H265.492C265.074 103.054 261.902 99.0464 255.723 99.0464C248.459 99.0464 245.37 103.138 244.284 108.398ZM292.206 74.9998V135.116H281.518V74.9998H292.206ZM311.612 74.9998V135.116H300.924V74.9998H311.612ZM339.049 90.3629C352.826 90.3629 361.092 100.549 361.092 113.074C361.092 125.598 352.826 135.784 339.049 135.784C325.272 135.784 317.006 125.598 317.006 113.074C317.006 100.549 325.272 90.3629 339.049 90.3629ZM339.049 126.099C346.313 126.099 350.404 120.254 350.404 113.074C350.404 105.893 346.313 100.048 339.049 100.048C331.785 100.048 327.694 105.893 327.694 113.074C327.694 120.254 331.785 126.099 339.049 126.099ZM373.829 135.116L361.137 91.0308H372.493L379.423 121.423C379.84 123.26 379.84 125.013 379.84 126.767C379.84 127.351 380.007 128.019 380.842 128.019C381.677 128.019 381.844 127.351 381.844 126.767C381.844 125.013 381.844 123.26 382.262 121.423L388.858 91.0308H401.549L408.145 121.423C408.563 123.26 408.563 125.013 408.563 126.767C408.563 127.351 408.73 128.019 409.565 128.019C410.4 128.019 410.566 127.351 410.566 126.767C410.566 125.013 410.566 123.26 410.984 121.423L417.914 91.0308H429.269L416.578 135.116H402.551L396.623 106.978C396.205 104.974 396.205 102.804 396.205 101.05C396.205 100.466 396.038 99.7978 395.203 99.7978C394.368 99.7978 394.201 100.466 394.201 101.05C394.201 102.804 394.201 104.974 393.784 106.978L387.856 135.116H373.829ZM429.284 120.254H439.805C439.888 123.51 441.809 127.435 449.574 127.435C456.42 127.435 458.675 125.097 458.675 122.174C458.675 118.918 454.333 118.417 445.9 117.415C432.374 115.745 430.62 108.732 430.62 103.806C430.62 96.625 436.966 90.3629 449.49 90.3629C461.096 90.3629 467.442 96.5415 468.026 104.557H457.506C457.255 101.802 455.418 98.7124 449.24 98.7124C443.145 98.7124 441.308 100.716 441.308 103.221C441.308 105.308 442.226 107.062 450.826 107.897C461.597 108.982 469.362 112.489 469.362 121.34C469.362 130.524 462.265 135.784 449.24 135.784C436.465 135.784 429.702 129.689 429.284 120.254ZM500.966 90.3629C510.484 90.3629 516.83 96.5415 516.83 109.066V135.116H506.142V112.74C506.142 102.804 503.554 100.048 497.96 100.048C491.781 100.048 486.103 106.978 486.103 117.165V135.116H475.416V74.9998H486.103V93.7862C486.103 96.458 485.602 98.0444 484.767 99.7978C484.434 100.549 483.933 101.718 485.018 101.969C485.686 102.136 485.936 101.635 486.27 100.967C488.274 96.5415 493.284 90.3629 500.966 90.3629ZM524.176 85.6871V74.9998H534.863V85.6871H524.176ZM524.176 91.0308H534.863V135.116H524.176V91.0308ZM543.582 91.0308H554.269V92.7007C554.269 94.4541 553.852 95.79 553.1 97.293C552.766 98.1279 552.182 99.1298 553.017 99.5473C553.852 99.9648 554.353 98.8794 554.52 98.5454C557.192 93.8697 561.617 90.3629 568.463 90.3629C579.902 90.3629 587.667 100.382 587.667 113.074C587.667 125.765 579.902 135.784 568.463 135.784C561.784 135.784 557.192 132.361 554.52 127.518C554.353 127.268 554.019 126.433 553.267 126.683C552.349 127.017 552.683 127.852 553.1 128.687C553.852 130.19 554.269 131.526 554.269 133.196V151.147H543.582V91.0308ZM565.959 126.099C573.473 126.099 576.98 120.087 576.98 113.074C576.98 106.06 573.473 100.048 565.959 100.048C558.945 100.048 554.269 106.06 554.269 113.074C554.269 120.087 558.945 126.099 565.959 126.099Z" fill="black"/>
</svg>
