<svg width="1590" height="894" viewBox="0 0 1590 894" fill="none" xmlns="http://www.w3.org/2000/svg">
<g clip-path="url(#clip0_90_820)">
<rect width="1590" height="894" fill="black"/>
<path d="M590.108 -88.7095H437.906V982.71H590.108V-88.7095Z" stroke="#333333" stroke-miterlimit="10"/>
<path d="M760.215 -88.7095H608.014V982.71H760.215V-88.7095Z" stroke="#333333" stroke-miterlimit="10"/>
<path d="M965.389 -88.7095H813.188V982.71H965.389V-88.7095Z" stroke="#333333" stroke-miterlimit="10"/>
<path d="M1152.66 -88.7095H983.295V982.71H1152.66V-88.7095Z" stroke="#333333" stroke-miterlimit="10"/>
<path d="M608.015 -87.3262H590.109V981.324H608.015V-87.3262Z" stroke="#333333" stroke-miterlimit="10"/>
<path d="M590.107 -86.1206H572.201V982.53H590.107V-86.1206Z" stroke="#333333" stroke-miterlimit="10"/>
<path d="M455.812 -86.1206H437.906V982.53H455.812V-86.1206Z" stroke="#333333" stroke-miterlimit="10"/>
<path d="M626.666 -87.5049H608.014V981.146H626.666V-87.5049Z" stroke="#333333" stroke-miterlimit="10"/>
<path d="M777.375 -87.3262H759.469V981.324H777.375V-87.3262Z" stroke="#333333" stroke-miterlimit="10"/>
<path d="M795.281 -87.3262H777.375V981.324H795.281V-87.3262Z" stroke="#333333" stroke-miterlimit="10"/>
<path d="M813.187 -87.3262H795.281V981.324H813.187V-87.3262Z" stroke="#333333" stroke-miterlimit="10"/>
<path d="M983.295 -87.3262H965.389V981.324H983.295V-87.3262Z" stroke="#333333" stroke-miterlimit="10"/>
<path d="M1000.16 -87.5049H983.295V981.146H1000.16V-87.5049Z" stroke="#333333" stroke-miterlimit="10"/>
<path d="M965.09 -87.5049H948.229V981.146H965.09V-87.5049Z" stroke="#333333" stroke-miterlimit="10"/>
<path d="M759.471 -87.5049H740.818V981.146H759.471V-87.5049Z" stroke="#333333" stroke-miterlimit="10"/>
<path d="M830.049 -87.5049H813.188V981.146H830.049V-87.5049Z" stroke="#333333" stroke-miterlimit="10"/>
<path d="M1152.36 -87.5049H1135.5V981.146H1152.36V-87.5049Z" stroke="#333333" stroke-miterlimit="10"/>
<path d="M1170.56 -87.3262H1152.66V981.324H1170.56V-87.3262Z" stroke="#333333" stroke-miterlimit="10"/>
<path d="M437.906 -87.3262H420V981.324H437.906V-87.3262Z" stroke="#333333" stroke-miterlimit="10"/>
<path d="M1596 353.291H-6V371.197H1596V353.291Z" stroke="#333333" stroke-miterlimit="10"/>
<path d="M1596 523.398H-6V541.304H1596V523.398Z" stroke="#333333" stroke-miterlimit="10"/>
<path d="M1596 506.23H-6V523.39H1596V506.23Z" stroke="#333333" stroke-miterlimit="10"/>
<path d="M1596 371.189H-6V388.349H1596V371.189Z" stroke="#333333" stroke-miterlimit="10"/>
<path d="M1135.09 371.165L1100.69 500.206C1097.64 511.705 1088.34 520.27 1077.04 522.647C1074.97 523.078 1072.84 523.306 1070.66 523.306H1065.12C1062.95 523.306 1060.81 523.078 1058.74 522.647C1047.44 520.27 1038.15 511.705 1035.1 500.206L1000.7 371.165H1019.06L1052.25 495.654C1053.8 501.486 1059.09 505.556 1065.12 505.556H1070.66C1076.7 505.556 1081.98 501.486 1083.53 495.654L1116.74 371.165H1135.09Z" fill="white"/>
<path d="M1000.7 371.165H982.953V523.306H1000.7V371.165Z" fill="white"/>
<path d="M1152.84 371.165H1135.09V523.306H1152.84V371.165Z" fill="white"/>
<path d="M943.103 388.845C945.537 388.845 947.521 390.829 947.521 393.264V501.208C947.521 503.642 945.537 505.626 943.103 505.626H835.159C832.725 505.626 830.741 503.642 830.741 501.208V393.264C830.741 390.829 832.725 388.845 835.159 388.845H943.103ZM943.103 371.165H835.159C822.956 371.165 813.061 381.061 813.061 393.264V501.208C813.061 513.411 822.956 523.306 835.159 523.306H943.103C955.306 523.306 965.202 513.411 965.202 501.208V393.264C965.202 381.061 955.306 371.165 943.103 371.165Z" fill="white"/>
<path d="M795.312 371.165H777.562V523.306H795.312V371.165Z" fill="white"/>
<path d="M653.509 430.525C655.658 435.293 660.406 438.361 665.642 438.361H701.839C707.075 438.361 711.824 435.293 713.973 430.525L740.432 371.165H759.811L730.214 437.683L728.369 441.885C726.879 445.283 726.879 449.188 728.369 452.586L730.207 456.782L759.811 523.306H740.426L713.966 463.939C711.817 459.178 707.069 456.11 701.839 456.11H665.642C660.413 456.11 655.665 459.178 653.516 463.939L627.056 523.306H607.67L637.268 456.795L639.113 452.586C640.602 449.188 640.602 445.283 639.113 441.885L637.268 437.683L607.67 371.165H627.049L653.509 430.525Z" fill="white"/>
<path d="M589.92 523.306H571.562L537.863 398.817C536.316 392.985 531.029 388.915 524.994 388.915H502.699C496.664 388.915 491.377 392.985 489.831 398.817L456.138 523.306H437.779L472.67 394.265C475.719 382.753 485.032 374.183 496.354 371.818C498.414 371.387 500.537 371.165 502.699 371.165H524.994C527.156 371.165 529.279 371.387 531.34 371.818C542.661 374.183 551.974 382.753 555.023 394.265L589.92 523.306Z" fill="white"/>
</g>
<defs>
<clipPath id="clip0_90_820">
<rect width="1590" height="894" fill="white"/>
</clipPath>
</defs>
</svg>
