<svg width="520" height="183" viewBox="0 0 520 183" fill="none" xmlns="http://www.w3.org/2000/svg">
<rect opacity="0.05" x="0.00390625" width="45.4977" height="181.991" fill="black"/>
<rect opacity="0.05" x="474.465" width="45.4977" height="181.991" fill="black"/>
<rect opacity="0.05" x="0.189453" y="136.553" width="519.811" height="45.4977" fill="black"/>
<rect opacity="0.05" x="0.189453" y="0.0595703" width="519.811" height="45.4977" fill="black"/>
<path d="M463.598 45.7383L442.974 122.917C441.146 129.795 435.571 134.917 428.795 136.339C427.557 136.597 426.276 136.733 424.972 136.733H421.651C420.348 136.733 419.067 136.597 417.828 136.339C411.052 134.917 405.481 129.795 403.653 122.917L383.029 45.7383H394.039L413.937 120.195C414.864 123.683 418.037 126.117 421.651 126.117H424.972C428.59 126.117 431.76 123.683 432.687 120.195L452.592 45.7383H463.598Z" fill="#1A1A1A"/>
<path d="M383.033 45.7383H372.393V136.733H383.033V45.7383Z" fill="#1A1A1A"/>
<path d="M474.238 45.7383H463.598V136.733H474.238V45.7383Z" fill="#1A1A1A"/>
<path d="M348.503 56.3127C349.962 56.3127 351.151 57.4994 351.151 58.9553V123.516C351.151 124.972 349.962 126.159 348.503 126.159H283.792C282.333 126.159 281.144 124.972 281.144 123.516V58.9553C281.144 57.4994 282.333 56.3127 283.792 56.3127H348.503ZM348.503 45.7383H283.792C276.477 45.7383 270.545 51.6568 270.545 58.9553V123.516C270.545 130.815 276.477 136.733 283.792 136.733H348.503C355.818 136.733 361.75 130.815 361.75 123.516V58.9553C361.75 51.6568 355.818 45.7383 348.503 45.7383Z" fill="#1A1A1A"/>
<path d="M259.908 45.7383H249.268V136.733H259.908V45.7383Z" fill="#1A1A1A"/>
<path d="M174.9 81.2413C176.188 84.0925 179.034 85.9277 182.173 85.9277H203.872C207.011 85.9277 209.858 84.0924 211.146 81.2413L227.008 45.7383H238.626L220.882 85.5225L219.776 88.0363C218.883 90.0684 218.883 92.4036 219.776 94.4357L220.878 96.9462L238.626 136.734H227.004L211.142 101.226C209.853 98.3791 207.007 96.5442 203.872 96.5442H182.173C179.038 96.5442 176.191 98.379 174.903 101.226L159.04 136.734H147.42L165.163 96.9537L166.269 94.4357C167.162 92.4036 167.162 90.0684 166.269 88.0363L165.163 85.5225L147.42 45.7383H159.037L174.9 81.2413Z" fill="#1A1A1A"/>
<path d="M136.779 136.733H125.774L105.572 62.2766C104.645 58.7885 101.475 56.3544 97.8576 56.3544H84.4923C80.8745 56.3544 77.7051 58.7885 76.7778 62.2766L56.5797 136.733H45.5742L66.4906 59.5544C68.3185 52.6691 73.9011 47.543 80.6882 46.1288C81.9233 45.871 83.1964 45.7383 84.4923 45.7383H97.8576C99.1535 45.7383 100.427 45.871 101.662 46.1288C108.449 47.543 114.031 52.6691 115.859 59.5544L136.779 136.733Z" fill="#1A1A1A"/>
<path opacity="0.1" d="M13.7082 154.245C14.3508 155.67 15.7708 156.588 17.3366 156.588H28.1611C29.7269 156.588 31.1469 155.67 31.7895 154.245L39.7024 136.493H45.4977L36.6465 156.385L36.0948 157.642C35.6494 158.658 35.6493 159.826 36.0948 160.842L36.6444 162.097L45.4977 181.991H39.7003L31.7874 164.237C31.1447 162.814 29.725 161.896 28.1611 161.896H17.3366C15.7727 161.896 14.3524 162.814 13.7098 164.237L5.79688 181.991H0L8.85116 162.101L9.40288 160.842C9.84832 159.826 9.84827 158.658 9.40288 157.642L8.85116 156.385L0 136.493H5.79527L13.7082 154.245Z" fill="#1A1A1A"/>
</svg>
