<svg width="223" height="52" viewBox="0 0 223 52" fill="none" xmlns="http://www.w3.org/2000/svg">
<rect width="52" height="52" rx="10" fill="black"/>
<path d="M39.1651 12.834L34.0426 24.3462C33.7617 24.977 33.369 25.5344 32.8928 25.9995C32.2598 26.6205 31.4808 27.0769 30.6239 27.3227C30.1467 27.462 29.6453 27.5355 29.1318 27.5355H22.8672C22.3538 27.5355 21.8524 27.462 21.3751 27.3238C20.5183 27.0769 19.7393 26.6194 19.1063 25.9995C18.6301 25.5344 18.2373 24.977 17.9565 24.3462L12.834 12.834H16.1879L20.7673 23.1075C21.1393 23.9325 21.961 24.4636 22.8672 24.4636H29.1318C30.0381 24.4636 30.8598 23.9325 31.2318 23.1075L35.8112 12.834H39.1651Z" fill="white"/>
<path d="M39.1651 39.1651H35.8101L31.2307 28.8905C30.8587 28.0665 30.037 27.5355 29.1318 27.5355H22.8672C21.9621 27.5355 21.1404 28.0665 20.7684 28.8905L16.189 39.1651H12.834L17.9565 27.654C18.2363 27.0232 18.6301 26.4647 19.1063 25.9995C19.7393 25.3797 20.5183 24.9222 21.3751 24.6753C21.8524 24.5371 22.3538 24.4636 22.8672 24.4636H29.1318C29.6453 24.4636 30.1467 24.5371 30.6239 24.6753C31.4808 24.9222 32.2598 25.3797 32.8928 25.9995C33.369 26.4647 33.7617 27.0221 34.0415 27.6518L39.1651 39.1651Z" fill="white"/>
<path d="M21.3751 27.3227C21.3038 27.6079 21.2084 27.8877 21.0888 28.1598L20.7684 28.8905L16.189 39.1651H12.834L17.9565 27.654L18.2757 26.9255C18.5336 26.3375 18.5336 25.6616 18.2757 25.0736L17.9565 24.3462L12.834 12.834H16.1879L20.7673 23.1075L21.0888 23.8393C21.2084 24.1114 21.3038 24.3911 21.3751 24.6753C21.5957 25.5431 21.5957 26.4549 21.3751 27.3227Z" fill="white"/>
<path d="M34.0415 27.6518L39.1651 39.1651H35.8101L31.2307 28.8905L30.9103 28.1598C30.7907 27.8877 30.6953 27.6079 30.6239 27.3238C30.4034 26.4549 30.4034 25.5431 30.6239 24.6753C30.6953 24.3911 30.7907 24.1114 30.9103 23.8393L31.2318 23.1075L35.8112 12.834H39.1651L34.0426 24.3462L33.7233 25.0736C33.4655 25.6616 33.4655 26.3375 33.7233 26.9255L34.0415 27.6518Z" fill="white"/>
<path d="M218.648 9.34766L211.117 37.5957C210.45 40.113 208.414 41.9877 205.94 42.5081C205.487 42.6025 205.02 42.6524 204.544 42.6524H203.331C202.855 42.6524 202.387 42.6025 201.935 42.5081C199.461 41.9877 197.426 40.113 196.759 37.5957L189.228 9.34766H193.248L200.514 36.5993C200.853 37.876 202.011 38.7669 203.331 38.7669H204.544C205.865 38.7669 207.022 37.876 207.361 36.5993L214.63 9.34766H218.648Z" fill="black"/>
<path d="M189.229 9.34766H185.344V42.6524H189.229V9.34766Z" fill="black"/>
<path d="M222.534 9.34766H218.648V42.6524H222.534V9.34766Z" fill="black"/>
<path d="M176.619 13.218C177.152 13.218 177.587 13.6523 177.587 14.1852V37.8149C177.587 38.3478 177.152 38.7822 176.619 38.7822H152.99C152.457 38.7822 152.023 38.3478 152.023 37.8149V14.1852C152.023 13.6523 152.457 13.218 152.99 13.218H176.619ZM176.619 9.34766H152.99C150.319 9.34766 148.152 11.5139 148.152 14.1852V37.8149C148.152 40.4862 150.319 42.6524 152.99 42.6524H176.619C179.291 42.6524 181.457 40.4862 181.457 37.8149V14.1852C181.457 11.5139 179.291 9.34766 176.619 9.34766Z" fill="black"/>
<path d="M144.266 9.34766H140.381V42.6524H144.266V9.34766Z" fill="black"/>
<path d="M136.494 9.34766L130.015 23.9088C129.66 24.7067 129.163 25.4117 128.561 26.0001C127.76 26.7855 126.775 27.3628 125.691 27.6736C125.087 27.8499 124.453 27.9428 123.804 27.9428H115.88C115.23 27.9428 114.596 27.8499 113.993 27.675C112.909 27.3628 111.924 26.7841 111.123 26.0001C110.521 25.4117 110.024 24.7067 109.669 23.9088L103.189 9.34766H107.432L113.224 22.3421C113.694 23.3856 114.734 24.0573 115.88 24.0573H123.804C124.95 24.0573 125.989 23.3856 126.46 22.3421L132.252 9.34766H136.494Z" fill="black"/>
<path d="M136.494 42.6524H132.25L126.458 29.6566C125.988 28.6145 124.948 27.9428 123.804 27.9428H115.88C114.735 27.9428 113.696 28.6145 113.225 29.6566L107.433 42.6524H103.189L109.669 28.0927C110.022 27.2948 110.521 26.5884 111.123 26.0001C111.924 25.216 112.909 24.6373 113.993 24.3251C114.596 24.1502 115.23 24.0573 115.88 24.0573H123.804C124.453 24.0573 125.087 24.1502 125.691 24.3251C126.775 24.6373 127.76 25.216 128.561 26.0001C129.163 26.5884 129.66 27.2934 130.014 28.0899L136.494 42.6524Z" fill="black"/>
<path d="M113.993 27.6736C113.902 28.0344 113.782 28.3883 113.63 28.7324L113.225 29.6566L107.433 42.6524H103.189L109.669 28.0927L110.072 27.1713C110.399 26.4275 110.399 25.5726 110.072 24.8288L109.669 23.9088L103.189 9.34766H107.432L113.224 22.3421L113.63 23.2677C113.782 23.6118 113.902 23.9657 113.993 24.3251C114.272 25.4228 114.272 26.5759 113.993 27.6736Z" fill="black"/>
<path d="M130.014 28.0899L136.494 42.6524H132.25L126.458 29.6566L126.053 28.7324C125.902 28.3883 125.781 28.0344 125.691 27.675C125.412 26.5759 125.412 25.4228 125.691 24.3251C125.781 23.9657 125.902 23.6118 126.053 23.2677L126.46 22.3421L132.252 9.34766H136.494L130.015 23.9088L129.611 24.8288C129.285 25.5726 129.285 26.4275 129.611 27.1713L130.014 28.0899Z" fill="black"/>
<path d="M99.3046 42.6524H95.2858L87.9089 15.4008C87.5703 14.1241 86.4129 13.2332 85.0919 13.2332H80.2113C78.8903 13.2332 77.7329 14.1241 77.3943 15.4008L70.0188 42.6524H66L73.6379 14.4044C74.3053 11.8844 76.3438 10.0082 78.8223 9.49059C79.2733 9.39623 79.7381 9.34766 80.2113 9.34766H85.0919C85.5651 9.34766 86.0299 9.39623 86.4809 9.49059C88.9593 10.0082 90.9979 11.8844 91.6653 14.4044L99.3046 42.6524Z" fill="black"/>
</svg>
