<svg width="245" height="52" viewBox="0 0 245 52" fill="none" xmlns="http://www.w3.org/2000/svg">
<path d="M238.336 0L226.577 44.1047C225.535 48.035 222.357 50.9622 218.494 51.7747C217.787 51.922 217.057 52 216.314 52H214.42C213.677 52 212.947 51.922 212.241 51.7747C208.377 50.9622 205.201 48.035 204.159 44.1047L192.4 0H198.677L210.022 42.549C210.551 44.5423 212.36 45.9333 214.42 45.9333H216.314C218.377 45.9333 220.184 44.5423 220.712 42.549L232.061 0H238.336Z" fill="#E9D2DE"/>
<path d="M192.403 0H186.336V52H192.403V0Z" fill="#E9D2DE"/>
<path d="M244.403 0H238.336V52H244.403V0Z" fill="#E9D2DE"/>
<path d="M172.715 6.04283C173.547 6.04283 174.225 6.721 174.225 7.553V44.447C174.225 45.279 173.547 45.9572 172.715 45.9572H135.821C134.989 45.9572 134.31 45.279 134.31 44.447V7.553C134.31 6.721 134.989 6.04283 135.821 6.04283H172.715ZM172.715 0H135.821C131.65 0 128.268 3.38217 128.268 7.553V44.447C128.268 48.6178 131.65 52 135.821 52H172.715C176.885 52 180.268 48.6178 180.268 44.447V7.553C180.268 3.38217 176.885 0 172.715 0Z" fill="#E9D2DE"/>
<path d="M122.201 0H116.135V52H122.201V0Z" fill="#E9D2DE"/>
<path d="M110.066 0L99.9502 22.7348C99.3956 23.9807 98.6199 25.0813 97.6796 26C96.4294 27.2263 94.8911 28.1277 93.1989 28.613C92.2564 28.8882 91.2662 29.0333 90.2522 29.0333H77.8806C76.8666 29.0333 75.8764 28.8882 74.9339 28.6152C73.2417 28.1277 71.7034 27.2242 70.4532 26C69.5129 25.0813 68.7372 23.9807 68.1826 22.7348L58.0664 0H64.6899L73.7336 20.2887C74.4681 21.918 76.0909 22.9667 77.8806 22.9667H90.2522C92.0419 22.9667 93.6647 21.918 94.3992 20.2887L103.443 0H110.066Z" fill="#E9D2DE"/>
<path d="M110.066 52H103.441L94.3971 31.7092C93.6626 30.082 92.0397 29.0333 90.2522 29.0333H77.8806C76.0931 29.0333 74.4702 30.082 73.7357 31.7092L64.6921 52H58.0664L68.1826 29.2673C68.7351 28.0215 69.5129 26.9187 70.4532 26C71.7034 24.7758 73.2417 23.8723 74.9339 23.3848C75.8764 23.1118 76.8666 22.9667 77.8806 22.9667H90.2522C91.2662 22.9667 92.2564 23.1118 93.1989 23.3848C94.8911 23.8723 96.4294 24.7758 97.6796 26C98.6199 26.9187 99.3956 28.0193 99.9481 29.263L110.066 52Z" fill="#E9D2DE"/>
<path d="M74.9339 28.613C74.7931 29.1763 74.6046 29.7288 74.3684 30.2662L73.7357 31.7092L64.6921 52H58.0664L68.1826 29.2673L68.8131 27.8287C69.3222 26.6673 69.3222 25.3327 68.8131 24.1713L68.1826 22.7348L58.0664 0H64.6899L73.7336 20.2887L74.3684 21.7338C74.6046 22.2712 74.7931 22.8237 74.9339 23.3848C75.3694 25.0987 75.3694 26.8992 74.9339 28.613Z" fill="#E9D2DE"/>
<path d="M99.9481 29.263L110.066 52H103.441L94.3971 31.7092L93.7644 30.2662C93.5282 29.7288 93.3397 29.1763 93.1989 28.6152C92.7634 26.8992 92.7634 25.0987 93.1989 23.3848C93.3397 22.8237 93.5282 22.2712 93.7644 21.7338L94.3992 20.2887L103.443 0H110.066L99.9502 22.7348L99.3197 24.1713C98.8106 25.3327 98.8106 26.6673 99.3197 27.8287L99.9481 29.263Z" fill="#E9D2DE"/>
<path d="M52 52H45.7253L34.2073 9.451C33.6787 7.45767 31.8717 6.06667 29.809 6.06667H22.1888C20.1262 6.06667 18.3192 7.45767 17.7905 9.451L6.27467 52H0L11.9253 7.89533C12.9675 3.96067 16.1503 1.03133 20.02 0.223167C20.7242 0.0758333 21.45 0 22.1888 0H29.809C30.5478 0 31.2737 0.0758333 31.9778 0.223167C35.8475 1.03133 39.0303 3.96067 40.0725 7.89533L52 52Z" fill="#E9D2DE"/>
</svg>
