<svg width="241" height="62" viewBox="0 0 241 62" fill="none" xmlns="http://www.w3.org/2000/svg">
<path d="M54.511 0.944336L43.9064 24.777C43.3249 26.083 42.5118 27.2368 41.5261 28.1999C40.2155 29.4854 38.6029 30.4303 36.829 30.939C35.841 31.2275 34.803 31.3797 33.7401 31.3797H20.771C19.708 31.3797 18.67 31.2275 17.682 30.9413C15.9081 30.4303 14.2955 29.4831 12.985 28.1999C11.9992 27.2368 11.1861 26.083 10.6047 24.777L0 0.944336H6.94334L16.4237 22.2127C17.1937 23.9207 18.8949 25.02 20.771 25.02H33.7401C35.6161 25.02 37.3173 23.9207 38.0873 22.2127L47.5677 0.944336H54.511Z" fill="#5F2DDF"/>
<path d="M54.511 55.4554H47.5654L38.085 34.1847C37.3151 32.479 35.6139 31.3797 33.7401 31.3797H20.771C18.8972 31.3797 17.196 32.479 16.426 34.1847L6.94561 55.4554H0L10.6047 31.625C11.1838 30.319 11.9992 29.1629 12.985 28.1999C14.2955 26.9166 15.9081 25.9694 17.682 25.4584C18.67 25.1722 19.708 25.02 20.771 25.02H33.7401C34.803 25.02 35.841 25.1722 36.829 25.4584C38.6029 25.9694 40.2155 26.9166 41.5261 28.1999C42.5118 29.1629 43.3249 30.3167 43.9041 31.6204L54.511 55.4554Z" fill="#5F2DDF"/>
<path d="M17.682 30.939C17.5344 31.5296 17.3368 32.1087 17.0892 32.672L16.426 34.1847L6.94561 55.4554H0L10.6047 31.625L11.2656 30.1168C11.7994 28.8994 11.7994 27.5003 11.2656 26.2829L10.6047 24.777L0 0.944336H6.94334L16.4237 22.2127L17.0892 23.7277C17.3368 24.291 17.5344 24.8701 17.682 25.4584C18.1385 27.255 18.1385 29.1424 17.682 30.939Z" fill="#5F2DDF"/>
<path d="M43.9041 31.6204L54.511 55.4554H47.5654L38.085 34.1847L37.4218 32.672C37.1743 32.1087 36.9767 31.5296 36.829 30.9413C36.3725 29.1424 36.3725 27.255 36.829 25.4584C36.9767 24.8701 37.1743 24.291 37.4218 23.7277L38.0873 22.2127L47.5677 0.944336H54.511L43.9064 24.777L43.2454 26.2829C42.7117 27.5003 42.7117 28.8994 43.2454 30.1168L43.9041 31.6204Z" fill="#5F2DDF"/>
<rect x="63.5957" y="2.15527" width="2.42271" height="53.2997" fill="black"/>
<path d="M98.7436 24.4551H93.5809L91.7467 19.0206H81.8287L79.9946 24.4551H74.8318L83.527 0.543233H90.0484L98.7436 24.4551ZM85.8367 7.03068L83.0855 15.2164H90.49L87.7388 7.03068C87.4331 6.07964 87.2293 4.82291 87.1953 3.63411C87.1953 3.43032 87.1274 3.15859 86.7877 3.15859C86.4481 3.15859 86.3801 3.43032 86.3801 3.63411C86.3462 4.82291 86.1424 6.07964 85.8367 7.03068ZM103.787 24.4551H98.7598L105.145 15.0805L99.3033 6.5212H104.33L107.319 11.3783C107.659 11.8878 107.795 12.5331 107.829 12.9747C107.863 13.2464 107.897 13.5181 108.27 13.5181C108.644 13.5181 108.678 13.2464 108.712 12.9747C108.746 12.5331 108.882 11.8878 109.221 11.3783L112.21 6.5212H117.237L111.395 15.0805L117.781 24.4551H112.754L109.221 18.7488C108.882 18.1714 108.746 17.628 108.712 17.1525C108.712 16.9147 108.644 16.609 108.27 16.609C107.897 16.609 107.829 16.9147 107.829 17.1525C107.795 17.628 107.659 18.1714 107.319 18.7488L103.787 24.4551ZM119.695 4.34739V-0.000217341H124.042V4.34739H119.695ZM119.695 6.5212H124.042V24.4551H119.695V6.5212ZM135.204 6.24947C140.808 6.24947 144.171 10.3933 144.171 15.4881C144.171 20.583 140.808 24.7268 135.204 24.7268C129.6 24.7268 126.237 20.583 126.237 15.4881C126.237 10.3933 129.6 6.24947 135.204 6.24947ZM135.204 20.7868C138.159 20.7868 139.823 18.4092 139.823 15.4881C139.823 12.5671 138.159 10.1895 135.204 10.1895C132.249 10.1895 130.585 12.5671 130.585 15.4881C130.585 18.4092 132.249 20.7868 135.204 20.7868ZM165.995 6.24947C169.12 6.24947 171.905 7.94775 171.905 13.3143V24.4551H167.558V13.9936C167.558 11.2764 166.777 10.1895 164.671 10.1895C162.769 10.1895 161.308 12.2274 161.308 15.4202V24.4551H156.961V14.4012C156.961 11.684 156.587 10.1895 154.379 10.1895C152.273 10.1895 150.711 12.7029 150.711 16.1674V24.4551H146.363V6.5212H150.711V7.54017C150.711 8.42327 150.473 8.93276 150.133 9.68C149.998 9.98569 149.896 10.3254 150.235 10.4272C150.575 10.5291 150.711 10.2235 150.779 10.0536C151.696 7.70999 153.36 6.24947 155.738 6.24947C158.081 6.24947 159.576 7.70999 160.051 9.7819C160.119 10.0197 160.289 10.1216 160.561 10.1216C160.765 10.1216 160.935 10.0536 161.036 9.81587C162.055 7.54017 163.856 6.24947 165.995 6.24947ZM81.6249 55.4551H77.0056V31.5432H93.8526V35.6191H81.6249V41.5971H91.6788V45.4012H81.6249V55.4551ZM112.348 46.2504C112.348 46.7259 112.315 47.0656 112.247 47.575H99.2038C99.5095 50.2923 101.276 51.9226 103.993 51.9226C106.065 51.9226 107.118 50.8018 107.627 49.2054H112.043C111.262 52.9077 108.748 55.7268 103.959 55.7268C98.1508 55.7268 94.9581 51.8207 94.9581 46.4881C94.9581 40.8838 98.4226 37.2495 103.891 37.2495C108.035 37.2495 112.348 39.729 112.348 46.2504ZM99.3736 44.5861H108.001C107.831 42.4123 106.54 40.7819 104.027 40.7819C101.072 40.7819 99.8151 42.4462 99.3736 44.5861ZM118.868 30.9998V55.4551H114.52V30.9998H118.868ZM126.762 30.9998V55.4551H122.415V30.9998H126.762ZM137.924 37.2495C143.528 37.2495 146.891 41.3933 146.891 46.4881C146.891 51.583 143.528 55.7268 137.924 55.7268C132.32 55.7268 128.957 51.583 128.957 46.4881C128.957 41.3933 132.32 37.2495 137.924 37.2495ZM137.924 51.7868C140.879 51.7868 142.543 49.4092 142.543 46.4881C142.543 43.5671 140.879 41.1895 137.924 41.1895C134.969 41.1895 133.305 43.5671 133.305 46.4881C133.305 49.4092 134.969 51.7868 137.924 51.7868ZM152.072 55.4551L146.909 37.5212H151.529L154.348 49.8847C154.518 50.632 154.518 51.3452 154.518 52.0585C154.518 52.2963 154.586 52.568 154.925 52.568C155.265 52.568 155.333 52.2963 155.333 52.0585C155.333 51.3452 155.333 50.632 155.503 49.8847L158.186 37.5212H163.349L166.032 49.8847C166.202 50.632 166.202 51.3452 166.202 52.0585C166.202 52.2963 166.27 52.568 166.609 52.568C166.949 52.568 167.017 52.2963 167.017 52.0585C167.017 51.3452 167.017 50.632 167.187 49.8847L170.006 37.5212H174.625L169.463 55.4551H163.756L161.345 44.0086C161.175 43.1935 161.175 42.3104 161.175 41.5971C161.175 41.3593 161.107 41.0876 160.767 41.0876C160.428 41.0876 160.36 41.3593 160.36 41.5971C160.36 42.3104 160.36 43.1935 160.19 44.0086L157.778 55.4551H152.072ZM174.631 49.4092H178.911C178.945 50.7338 179.726 52.3302 182.885 52.3302C185.67 52.3302 186.587 51.3792 186.587 50.1904C186.587 48.8657 184.821 48.6619 181.391 48.2544C175.888 47.575 175.175 44.7219 175.175 42.7179C175.175 39.7969 177.756 37.2495 182.851 37.2495C187.572 37.2495 190.154 39.7629 190.392 43.0236H186.112C186.01 41.9028 185.263 40.646 182.749 40.646C180.27 40.646 179.523 41.4612 179.523 42.4802C179.523 43.3293 179.896 44.0426 183.395 44.3823C187.776 44.8238 190.935 46.2504 190.935 49.8507C190.935 53.587 188.048 55.7268 182.749 55.7268C177.553 55.7268 174.801 53.2473 174.631 49.4092ZM203.791 37.2495C207.663 37.2495 210.245 39.7629 210.245 44.8578V55.4551H205.897V46.3523C205.897 42.3104 204.844 41.1895 202.569 41.1895C200.055 41.1895 197.745 44.0086 197.745 48.1525V55.4551H193.398V30.9998H197.745V38.6421C197.745 39.729 197.542 40.3743 197.202 41.0876C197.066 41.3933 196.862 41.8688 197.304 41.9707C197.576 42.0386 197.677 41.8348 197.813 41.5631C198.628 39.7629 200.666 37.2495 203.791 37.2495ZM213.233 35.3474V30.9998H217.581V35.3474H213.233ZM213.233 37.5212H217.581V55.4551H213.233V37.5212ZM221.128 37.5212H225.475V38.2005C225.475 38.9138 225.305 39.4572 225 40.0686C224.864 40.4083 224.626 40.8159 224.966 40.9857C225.305 41.1555 225.509 40.714 225.577 40.5781C226.664 38.676 228.464 37.2495 231.249 37.2495C235.903 37.2495 239.061 41.3254 239.061 46.4881C239.061 51.6509 235.903 55.7268 231.249 55.7268C228.532 55.7268 226.664 54.3342 225.577 52.3642C225.509 52.2623 225.373 51.9226 225.068 52.0245C224.694 52.1604 224.83 52.5001 225 52.8397C225.305 53.4511 225.475 53.9946 225.475 54.6739V61.9765H221.128V37.5212ZM230.23 51.7868C233.287 51.7868 234.714 49.3413 234.714 46.4881C234.714 43.635 233.287 41.1895 230.23 41.1895C227.377 41.1895 225.475 43.635 225.475 46.4881C225.475 49.3413 227.377 51.7868 230.23 51.7868Z" fill="black"/>
</svg>
