<svg width="245" height="52" viewBox="0 0 245 52" fill="none" xmlns="http://www.w3.org/2000/svg">
<path d="M135.819 0.25H172.713C176.746 0.25 180.015 3.52009 180.016 7.55273V44.4473C180.015 48.4799 176.746 51.75 172.713 51.75H135.819C131.787 51.75 128.516 48.4799 128.516 44.4473V7.55273C128.516 3.52009 131.787 0.25 135.819 0.25ZM198.484 0.25L209.778 42.6123V42.6133C210.336 44.7162 212.245 46.1836 214.419 46.1836H216.312C218.421 46.1835 220.276 44.8064 220.896 42.8086L220.952 42.6133L232.252 0.25H238.009L226.334 44.04V44.041C225.348 47.7583 222.405 50.5567 218.792 51.4492L218.44 51.5303C217.751 51.6741 217.038 51.75 216.312 51.75H214.419C213.693 51.75 212.98 51.6742 212.29 51.5303C208.518 50.7368 205.417 47.8781 204.399 44.041V44.04L192.725 0.25H198.484ZM64.5234 0.250977L73.501 20.3916L73.502 20.3926C74.277 22.1115 75.9892 23.2178 77.877 23.2178H90.248C92.1358 23.2177 93.8481 22.1114 94.623 20.3926L94.624 20.3916L103.602 0.250977H109.678L99.7178 22.6338V22.6348L99.0869 24.0713H99.0859C98.5487 25.2966 98.5487 26.7054 99.0859 27.9307L99.7148 29.3643L99.7158 29.3652L109.678 51.751H103.599L94.6221 31.6084L94.6211 31.6074L94.4648 31.293C93.6313 29.7568 92.0159 28.7842 90.248 28.7842H77.877C75.9912 28.7842 74.2789 29.8906 73.5039 31.6074L73.5029 31.6084L64.5264 51.751H58.4473L68.4072 29.3701V29.3691L69.0381 27.9307C69.5753 26.7053 69.5753 25.2966 69.0381 24.0713L68.4072 22.6348V22.6338L58.4473 0.250977H64.5234ZM244.151 0.25V51.75H238.584V0.25H244.151ZM192.151 0.25V51.75H186.584V0.25H192.151ZM121.951 0.25V51.75H116.385V0.25H121.951ZM22.1885 0.25H29.8086C30.5303 0.25 31.2395 0.323977 31.9268 0.467773C35.7054 1.25694 38.8135 4.11755 39.8311 7.95898V7.96094L51.6738 51.75H45.917L34.4482 9.38672H34.4492C33.8915 7.2839 31.9847 5.81641 29.8086 5.81641H22.1885C20.0129 5.81657 18.1069 7.28356 17.5488 9.38574L6.08301 51.75H0.326172L12.167 7.96094V7.95898C13.1846 4.11757 16.2926 1.25693 20.0713 0.467773C20.5868 0.359921 21.1143 0.291234 21.6504 0.263672L22.1885 0.25ZM135.819 5.79297C134.849 5.79297 134.059 6.58279 134.059 7.55273V44.4473C134.059 45.4172 134.849 46.207 135.819 46.207H172.713C173.683 46.207 174.473 45.4172 174.473 44.4473V7.55273C174.473 6.58279 173.683 5.79297 172.713 5.79297H135.819Z" stroke="black" stroke-width="0.5"/>
</svg>
