<svg width="279" height="54" viewBox="0 0 279 54" fill="none" xmlns="http://www.w3.org/2000/svg">
<path d="M232.368 0.5L232.467 0.871094L243.812 43.4199V43.4209C244.282 45.1949 245.893 46.4334 247.727 46.4336H249.62C251.456 46.4336 253.065 45.195 253.535 43.4209L253.536 43.4199L264.885 0.871094L264.983 0.5H278.209V53.5H271.143V4.81738L260.367 45.2334C259.276 49.3493 255.948 52.413 251.903 53.2637H251.902C251.163 53.4179 250.398 53.5 249.62 53.5H247.727C246.949 53.5 246.184 53.4178 245.445 53.2637H245.444C241.4 52.413 238.074 49.3492 236.982 45.2334L226.209 4.82422V53.5H219.143V0.5H232.368Z" fill="black" stroke="black"/>
<path d="M198.021 0.5C202.468 0.500142 206.074 4.10597 206.074 8.55273V45.4473C206.074 49.894 202.468 53.4999 198.021 53.5H161.127C156.68 53.4999 153.074 49.894 153.074 45.4473V8.55273C153.074 4.10597 156.68 0.500142 161.127 0.5H198.021ZM161.127 7.54297C160.571 7.54311 160.117 7.99708 160.117 8.55273V45.4473C160.117 46.0029 160.571 46.4569 161.127 46.457H198.021C198.577 46.4569 199.031 46.0029 199.031 45.4473V8.55273C199.031 7.99708 198.577 7.54311 198.021 7.54297H161.127Z" fill="black" stroke="black"/>
<path d="M140.008 0.5V53.5H132.941V0.5H140.008Z" fill="black" stroke="black"/>
<path d="M74.3213 0.5L74.4531 0.796875L83.4961 21.083L83.6279 21.3486C84.2842 22.5596 85.5149 23.3554 86.8906 23.4561L87.1875 23.4668H99.5586L99.8555 23.4561C101.329 23.3483 102.637 22.4424 103.25 21.083L112.293 0.796875L112.425 0.5H120.143L119.83 1.20312L109.714 23.9385L109.084 25.3721C108.659 26.3409 108.633 27.4467 109.005 28.4326L109.084 28.6279L109.712 30.0596L119.83 52.7969L120.143 53.5H112.423L112.291 53.2031L103.247 32.9131L103.246 32.9102C102.591 31.4648 101.148 30.5332 99.5586 30.5332H87.1875C85.5974 30.5332 84.1522 31.4654 83.498 32.9121L83.499 32.9131L74.4551 53.2031L74.3232 53.5H66.6035L66.916 52.7969L77.0322 30.0645L77.6621 28.6279L77.7412 28.4326C78.113 27.4467 78.0869 26.3409 77.6621 25.3721L77.0322 23.9385L66.916 1.20312L66.6035 0.5H74.3213Z" fill="black" stroke="black"/>
<path d="M31.1152 0.5L31.6934 0.514648C32.2677 0.544217 32.8335 0.61765 33.3867 0.733398L33.7646 0.819336C37.6436 1.77221 40.8033 4.77405 41.8613 8.76465L53.7891 52.8691L53.96 53.5H46.6494L46.5498 53.1309L35.0312 10.582L35.0303 10.5791C34.5597 8.80496 32.951 7.56641 31.1152 7.56641H23.4951C21.6595 7.56657 20.0506 8.80498 19.5801 10.5791V10.582L8.06348 53.1309L7.96387 53.5H0.65332L0.824219 52.8691L12.749 8.76465C13.8412 4.64512 17.174 1.57936 21.2246 0.733398C21.9623 0.579074 22.7223 0.500025 23.4951 0.5H31.1152Z" fill="black" stroke="black"/>
</svg>
